<?xml version="1.0" standalone="no"?>
<svg version="1.0" xmlns="http://www.w3.org/2000/svg"
 width="100px" height="100px" viewBox="0 0 956.000000 1012.000000"
 preserveAspectRatio="xMidYMid meet">

<g transform="translate(0.000000,1012.000000) scale(0.100000,-0.100000)"
fill="#FFFFFF" stroke="none">

<path d="M6902 7088 c-12 -16 -56 -166 -77 -266 -8 -40 -15 -119 -15 -175 0
-99 7 -149 104 -707 72 -418 112 -846 137 -1460 12 -304 7 -802 -11 -1011 -35
-402 -175 -718 -430 -968 -136 -134 -245 -206 -993 -656 -299 -181 -330 -206
-264 -213 30 -4 523 103 661 143 352 102 602 258 780 489 144 186 215 345 281
631 20 88 40 164 45 169 8 8 21 -31 80 -244 61 -221 136 -337 260 -400 81 -41
150 -53 276 -48 92 3 118 8 167 30 156 73 267 287 298 578 21 187 -20 454 -91
595 -40 81 -119 185 -141 185 -29 0 -81 -156 -86 -260 -6 -104 5 -147 57 -230
80 -128 94 -166 95 -262 0 -83 -1 -88 -29 -117 -99 -103 -408 -108 -503 -9
-36 39 -92 147 -122 236 -35 107 -82 556 -96 907 -3 83 -10 337 -15 565 -21
879 -57 1273 -171 1850 -91 463 -145 660 -179 660 -4 0 -12 -6 -18 -12z"/>

<path d="M4102 6793 c-62 -127 -67 -141 -67 -202 1 -44 8 -86 23 -125 21 -55
28 -152 117 -1575 52 -834 104 -1646 116 -1806 23 -319 21 -412 -12 -478 -26
-50 -52 -75 -234 -221 -751 -603 -1399 -911 -1915 -909 -162 1 -248 21 -390
89 -242 116 -403 309 -472 564 -20 74 -23 109 -23 260 0 202 14 283 95 575 27
98 47 181 45 184 -22 21 -112 -149 -170 -322 -110 -330 -121 -655 -34 -1017
89 -366 307 -613 640 -724 317 -106 654 -54 1108 172 370 183 688 407 1119
789 225 200 273 275 342 547 107 426 115 583 70 1506 -11 217 -24 496 -30 620
-6 124 -24 376 -40 560 -35 396 -53 682 -48 765 3 52 6 60 24 63 16 2 32 -14
73 -78 42 -66 56 -81 74 -78 38 5 31 48 -42 265 -78 232 -278 713 -297 713 -2
0 -35 -62 -72 -137z"/>

<path d="M4781 6869 c-5 -13 -33 -82 -62 -154 -50 -123 -53 -135 -53 -220 0
-73 4 -99 23 -140 24 -52 31 -106 81 -625 28 -290 44 -393 76 -490 48 -145
110 -225 424 -544 192 -195 314 -307 485 -441 478 -377 688 -599 815 -858 71
-145 99 -246 131 -465 22 -152 25 -163 43 -160 22 3 30 56 66 400 32 322 -106
664 -390 962 -76 80 -288 264 -850 737 -173 146 -340 293 -370 326 -62 66
-120 169 -144 253 -8 30 -29 154 -46 275 -17 121 -32 231 -35 245 -8 54 9 50
99 -21 48 -38 91 -69 96 -69 4 0 13 7 20 15 15 18 20 5 -225 600 -86 209 -160
384 -165 389 -6 6 -13 0 -19 -15z"/>

<path d="M7732 2107 c-22 -28 -152 -296 -152 -314 0 -13 42 -48 145 -119 207
-141 204 -140 220 -123 7 8 43 74 80 148 91 183 94 174 -83 292 -75 50 -144
97 -152 104 -25 20 -48 25 -58 12z"/> <!-- letter Dot under bay-->
</g>
</svg>
